<?xml version="1.0" encoding="UTF-8" standalone="no"?>
<!-- Created with Inkscape (http://www.inkscape.org/) -->

<svg
   width="210mm"
   height="297mm"
   viewBox="0 0 210 297"
   version="1.1"
   id="svg5"
   inkscape:version="1.1.1 (3bf5ae0d25, 2021-09-20)"
   sodipodi:docname="snowman.svg"
   inkscape:export-filename="C:\Users\ericd\Downloads\snowman.png"
   inkscape:export-xdpi="101.6"
   inkscape:export-ydpi="101.6"
   xmlns:inkscape="http://www.inkscape.org/namespaces/inkscape"
   xmlns:sodipodi="http://sodipodi.sourceforge.net/DTD/sodipodi-0.dtd"
   xmlns="http://www.w3.org/2000/svg"
   xmlns:svg="http://www.w3.org/2000/svg">
  <sodipodi:namedview
     id="namedview7"
     pagecolor="#ffffff"
     bordercolor="#666666"
     borderopacity="1.0"
     inkscape:pageshadow="2"
     inkscape:pageopacity="0.0"
     inkscape:pagecheckerboard="true"
     inkscape:document-units="mm"
     showgrid="false"
     inkscape:zoom="1.8101934"
     inkscape:cx="-4.695631"
     inkscape:cy="219.03737"
     inkscape:window-width="3200"
     inkscape:window-height="1711"
     inkscape:window-x="-9"
     inkscape:window-y="-9"
     inkscape:window-maximized="1"
     inkscape:current-layer="layer1" />
  <defs
     id="defs2" />
  <g
     inkscape:groupmode="layer"
     id="layer2"
     inkscape:label="Layer 2">
    <ellipse
       style="fill:#00bfe2;fill-opacity:0.31;stroke-width:0.173585"
       id="path7751"
       cx="103.14084"
       cy="126.4846"
       rx="16"
       ry="4" />
  </g>
  <g
     inkscape:label="Layer 1"
     inkscape:groupmode="layer"
     id="layer1">
    <circle
       style="fill:#f4ffff;fill-opacity:1;stroke-width:0.237974;stroke:#e5eff4;stroke-opacity:1"
       id="path892-9"
       cx="103.14084"
       cy="104.63067"
       r="24" />
    <ellipse
       style="fill:#00bfe2;fill-opacity:0.0781893;stroke-width:0.0903477"
       id="path7751-7"
       cx="103.14084"
       cy="82.180168"
       rx="7.5956264"
       ry="2.2825844" />
    <circle
       style="fill:#f4ffff;fill-opacity:1;stroke-width:0.178477;stroke:#e5eff4;stroke-opacity:1"
       id="path892-9-9"
       cx="103.14084"
       cy="65.92205"
       r="18" />
    <circle
       style="fill:#000000;fill-opacity:1;stroke-width:0.121868"
       id="path1172-96"
       cx="91.663956"
       cy="71.346718"
       r="1.125" />
    <circle
       style="fill:#000000;fill-opacity:1;stroke-width:0.121868"
       id="path1172-96-7"
       cx="112.79933"
       cy="71.300026"
       r="1.125" />
    <circle
       style="fill:#000000;fill-opacity:1;stroke-width:0.121868"
       id="path1172-96-2"
       cx="96.496513"
       cy="74.61145"
       r="1.125" />
    <circle
       style="fill:#000000;fill-opacity:1;stroke-width:0.121868"
       id="path1172-96-5"
       cx="108.00379"
       cy="74.249718"
       r="1.125" />
    <circle
       style="fill:#000000;fill-opacity:1;stroke-width:0.121868"
       id="path1172-96-0"
       cx="102.25944"
       cy="75.560234"
       r="1.125" />
    <circle
       style="fill:#000000;fill-opacity:1;stroke-width:0.162491"
       id="path1172"
       cx="95.668709"
       cy="61.336376"
       r="1.5" />
    <circle
       style="fill:#000000;fill-opacity:1;stroke-width:0.162491"
       id="path1172-9"
       cx="108.49632"
       cy="61.336376"
       r="1.5" />
    <path
       sodipodi:type="star"
       style="fill:#f78300;fill-opacity:1"
       id="path1408"
       inkscape:flatsided="false"
       sodipodi:sides="3"
       sodipodi:cx="163.75911"
       sodipodi:cy="202.2495"
       sodipodi:r1="43.940166"
       sodipodi:r2="87.880333"
       sodipodi:arg1="1.4750896"
       sodipodi:arg2="2.5222872"
       inkscape:rounded="0.21"
       inkscape:randomized="0"
       transform="matrix(0.05474092,0,0,0.04943913,93.22322,56.757667)"
       inkscape:transform-center-x="-0.094706334"
       inkscape:transform-center-y="0.19397656"
       d="m 167.95806,245.98858 c -15.90924,1.52728 -66.48102,20.28696 -75.758308,7.27279 -9.277292,-13.01416 24.948778,-54.70356 31.580728,-69.24501 6.63195,-14.54146 15.67148,-67.71773 31.58073,-69.24502 15.90924,-1.52729 34.90029,48.95805 44.17758,61.97222 9.27729,13.01416 50.80953,47.43077 44.17758,61.97222 -6.63195,14.54145 -59.84906,5.74551 -75.75831,7.2728 z" />
    <g
       id="g6879"
       transform="translate(-2.1924453,24.263062)">
      <path
         style="fill:#58330b;fill-opacity:1;stroke-width:0.264583"
         id="path6787"
         d="M 87.448931,71.763437 C 87.046595,71.368226 86.593385,71.031835 86.15831,70.674417 85.76104,70.362299 85.418204,69.99117 85.059619,69.637383 84.745805,69.261161 84.432525,68.889937 84.07383,68.555554 83.688898,68.17084 83.290695,67.801656 82.88449,67.439661 82.420758,67.013952 81.934602,66.616645 81.411362,66.266729 80.97713,65.985394 80.540338,65.708717 80.128151,65.395556 79.702918,65.047388 79.323628,64.647672 78.936444,64.258779 78.540699,63.84559 78.144364,63.433525 77.757649,63.011777 77.422006,62.624305 77.081472,62.241019 76.740093,61.858077 76.385615,61.431048 75.99001,61.045841 75.590812,60.661933 75.334097,60.354032 75.037245,60.087255 74.74247,59.817679 74.286808,59.387686 73.849848,58.94049 73.427526,58.477906 73.016051,58.010813 72.597274,57.55075 72.166987,57.100977 c -0.371943,-0.381968 -0.745794,-0.762262 -1.124572,-1.13748 -0.323937,-0.338778 -0.667596,-0.65722 -1.037526,-0.945105 -0.352952,-0.258509 -0.710631,-0.50872 -1.050163,-0.784956 -0.259014,-0.264951 -0.553429,-0.488762 -0.837473,-0.725127 -0.03109,-0.02909 -0.06217,-0.05819 -0.09326,-0.08728 0,0 -1.679297,1.035386 -1.679297,1.035386 v 0 c 0.03458,0.03309 0.06916,0.06617 0.103743,0.09926 0.292383,0.227971 0.589407,0.45198 0.853704,0.713097 0.338524,0.279321 0.686456,0.545661 1.045824,0.797661 0.374055,0.269505 0.714743,0.582718 1.034619,0.91418 0.374441,0.378183 0.754462,0.750824 1.124646,1.133229 0.432969,0.446149 0.858845,0.899232 1.275011,1.361123 0.420002,0.467587 0.847608,0.928351 1.294701,1.370317 0.286867,0.27754 0.592088,0.536895 0.854763,0.839192 0.400656,0.376198 0.794809,0.755597 1.14748,1.178623 0.342889,0.382818 0.665948,0.781524 1.011526,1.161825 0.394311,0.418537 0.80228,0.823476 1.188389,1.249654 0.394713,0.391739 0.774758,0.801018 1.200544,1.159534 0.410059,0.326633 0.855501,0.602305 1.299596,0.879985 0.523558,0.332613 1.003951,0.723461 1.452907,1.151504 0.406164,0.360259 0.804696,0.726781 1.185108,1.11443 0.360482,0.328203 0.665261,0.706215 0.980496,1.076939 0.362482,0.359847 0.708882,0.737407 1.118015,1.046917 0.428898,0.3479 0.884007,0.672523 1.244772,1.094202 0,0 1.688388,-1.034647 1.688388,-1.034647 z" />
      <path
         style="fill:#58330b;fill-opacity:1;stroke-width:0.264583"
         id="path6789"
         d="m 68.370655,54.409049 c -0.0057,-0.462593 -0.0056,-0.925264 -0.007,-1.387893 -3.7e-5,-0.448803 -0.01585,-0.895684 0.04908,-1.340496 0.06486,-0.354042 0.08184,-0.71333 0.09152,-1.072303 0.02742,-0.294386 0.06696,-0.587431 0.0999,-0.881224 0,0 -0.877363,0.434954 -0.877363,0.434954 v 0 c -0.03215,0.295941 -0.07097,0.591177 -0.09631,0.887817 -0.01418,0.356584 -0.03834,0.712502 -0.09866,1.064747 -0.0562,0.447778 -0.03214,0.897289 -0.03416,1.34775 -0.0013,0.465024 -0.0013,0.930087 -0.007,1.395074 0,0 0.880086,-0.448426 0.880086,-0.448426 z" />
      <path
         style="fill:#58330b;fill-opacity:1;stroke-width:0.264583"
         id="path6791"
         d="m 69.309186,55.53388 c -0.317728,-0.414573 -0.621525,-0.839219 -0.922589,-1.266087 -0.268256,-0.337986 -0.564441,-0.651711 -0.797877,-1.015891 -0.211008,-0.280181 -0.460656,-0.52119 -0.728753,-0.744704 -0.216344,-0.236302 -0.460211,-0.443302 -0.697227,-0.657601 -0.235186,-0.285247 -0.497634,-0.548 -0.725414,-0.839102 0,0 -0.842422,0.502128 -0.842422,0.502128 v 0 c 0.230544,0.296114 0.497697,0.561198 0.731152,0.85539 0.237429,0.215474 0.486632,0.4191 0.697986,0.662088 0.261779,0.216792 0.512824,0.441418 0.718339,0.71577 0.235159,0.365728 0.529156,0.682493 0.80667,1.015801 0.300331,0.423535 0.606702,0.843024 0.903784,1.268545 0,0 0.856351,-0.496337 0.856351,-0.496337 z" />
      <path
         style="fill:#58330b;fill-opacity:1;stroke-width:0.264583"
         id="path6793"
         d="m 68.363595,54.32929 c -0.597522,-0.210867 -1.215938,-0.346257 -1.832613,-0.487775 -0.60819,-0.125328 -1.195988,-0.319402 -1.785625,-0.509982 -0.484545,-0.16623 -0.996868,-0.206777 -1.49519,-0.312592 C 62.92654,52.938671 62.594371,52.914844 62.262518,52.9 c 0,0 -0.798005,0.575001 -0.798005,0.575001 v 0 c 0.328822,0.01117 0.658596,0.02874 0.980197,0.104002 0.499313,0.104029 1.011965,0.138941 1.499377,0.297477 0.593191,0.189203 1.180643,0.394403 1.793367,0.515061 0.611656,0.135917 1.227643,0.263152 1.811597,0.495591 0,0 0.814544,-0.557842 0.814544,-0.557842 z" />
    </g>
    <circle
       style="fill:#000000;fill-opacity:1;stroke-width:0.241419"
       id="path6994"
       cx="103.14084"
       cy="91.5"
       r="1.5" />
    <circle
       style="fill:#000000;fill-opacity:1;stroke-width:0.241419"
       id="path6994-3"
       cx="103.14084"
       cy="99.5"
       r="1.5" />
    <circle
       style="fill:#000000;fill-opacity:1;stroke-width:0.241419"
       id="path6994-3-3"
       cx="103.14084"
       cy="107.5"
       r="1.5" />
    <g
       id="g7329"
       transform="translate(1.7336631,-5.9980784)">
      <ellipse
         style="fill:#000000;fill-opacity:1;stroke-width:0.264583"
         id="path7221"
         cx="101.36405"
         cy="58.392128"
         rx="16.88183"
         ry="2.2655268" />
      <rect
         style="fill:#000000;fill-opacity:1;stroke-width:0.264583"
         id="rect7245"
         width="17.247236"
         height="14.470139"
         x="92.740433"
         y="42.094952" />
    </g>
    <rect
       style="fill:#ff0000;fill-opacity:1;stroke-width:0.232667"
       id="rect7557"
       width="17.247238"
       height="4"
       x="94.474098"
       y="46.037846" />
  </g>
</svg>
